<svg width="30" height="22" viewBox="0 0 30 22" fill="none" xmlns="http://www.w3.org/2000/svg">
<rect width="30" height="22" fill="#1E1E1E"/>
<g id="Rezilla - Real Estate - Homepage - Web" clip-path="url(#clip0_0_1)">
<rect width="1440" height="8501" transform="translate(-160 -2908)" fill="white"/>
<g id="Frame 44" clip-path="url(#clip1_0_1)">
<g id="Group 41">
<g id="Group 33">
<g id="Group 31">
<g id="&#240;&#159;&#166;&#134; icon &#34;bed&#34;">
<path id="Vector" d="M25 4.5H12V12.0387H10.6154V9.47619C10.6138 8.02433 10.0363 6.63239 9.00971 5.60575C7.9831 4.57912 6.59117 4.00164 5.13931 4H2V0H0V21.5H2V18.5161L28 18.7241V21.5H30V9.5C29.9985 8.17438 29.4712 6.90348 28.5339 5.96613C27.5965 5.02877 26.3256 4.5015 25 4.5ZM2 6H5.13931C6.0609 6.00104 6.94445 6.3676 7.59611 7.01927C8.24777 7.67093 8.61433 8.55447 8.61537 9.47606V12.0386H2V6ZM28 16.724L2 16.516V14.0387H28V16.724ZM28 12.0387H14V6.5H25C25.7954 6.50091 26.5579 6.81727 27.1203 7.37968C27.6827 7.9421 27.9991 8.70463 28 9.5V12.0387Z" fill="#2B2B2B"/>
</g>
</g>
</g>
</g>
</g>
</g>
<defs>
<clipPath id="clip0_0_1">
<rect width="1440" height="8501" fill="white" transform="translate(-160 -2908)"/>
</clipPath>
<clipPath id="clip1_0_1">
<rect width="1560" height="499" fill="white" transform="translate(0 -476)"/>
</clipPath>
</defs>
</svg>
